# xmcd
#
# Track frame offsets:
# 150
# 19700
# 35562
# 55290
# 75740
# 94112
# 108885
# 126935
# 144652
# 157384
# 175697
# 191992
#
# Disc length: 2789 seconds
#
#
# Revision: 0
# Processed by: cddbd v1.5.1PL2 Copyright (c) Steve Scherf et al.
# Submitted via: FreeRIP 2.945 
#
DISCID=a60ae30c
DTITLE=SPC - Grandes sucessos
DYEAR=2000
DGENRE=MPB
TTITLE0=Domingo
TTITLE1=Você vai voltar pra mim
TTITLE2=Nunca mais te machucar
TTITLE3=Dói demais
TTITLE4=Não diga nada
TTITLE5=Água na boca
TTITLE6=Cola do meu lado
TTITLE7=Nosso sonho não é ilusão
TTITLE8=Te amar sem medo
TTITLE9=Essa tal liberdade
TTITLE10=Vem cá menina
TTITLE11=O samba não tem fronteiras
EXTD=
EXTT0=
EXTT1=
EXTT2=
EXTT3=
EXTT4=
EXTT5=
EXTT6=
EXTT7=
EXTT8=
EXTT9=
EXTT10=
EXTT11=
PLAYORDER=
